<?xml version="1.0" standalone="no"?><!DOCTYPE svg PUBLIC "-//W3C//DTD SVG 1.1//EN" "http://www.w3.org/Graphics/SVG/1.1/DTD/svg11.dtd"><svg t="1713170423266" class="icon" viewBox="0 0 1024 1024" version="1.1" xmlns="http://www.w3.org/2000/svg" p-id="11888" xmlns:xlink="http://www.w3.org/1999/xlink" width="200" height="200"><path d="M0 0m512 0l0 0q512 0 512 512l0 0q0 512-512 512l0 0q-512 0-512-512l0 0q0-512 512-512Z" fill="#FF6B00" fill-opacity=".1" p-id="11889"></path><path d="M288 288m64 0l320 0q64 0 64 64l0 352q0 64-64 64l-320 0q-64 0-64-64l0-352q0-64 64-64Z" fill="#FF6B00" p-id="11890"></path><path d="M352 256m32 0l256 0q32 0 32 32l0 320q0 32-32 32l-256 0q-32 0-32-32l0-320q0-32 32-32Z" fill="#FFD1B0" fill-opacity=".8" p-id="11891"></path><path d="M480 288h128v121.376a16 16 0 0 1-27.328 11.296l-25.344-25.344a16 16 0 0 0-22.656 0l-25.344 25.344a16 16 0 0 1-27.328-11.296V288z" fill="#FFFFFF" p-id="11892"></path></svg>