<?xml version="1.0" standalone="no"?><!DOCTYPE svg PUBLIC "-//W3C//DTD SVG 1.1//EN" "http://www.w3.org/Graphics/SVG/1.1/DTD/svg11.dtd"><svg t="1713195693484" class="icon" viewBox="0 0 1024 1024" version="1.1" xmlns="http://www.w3.org/2000/svg" p-id="8873" xmlns:xlink="http://www.w3.org/1999/xlink" width="200" height="200"><path d="M0 0h1024v1024H0z" fill="#FFFFFF" fill-opacity="0" p-id="8874"></path><path d="M511.232 25.6L84.608 272.042667v492.672l426.624 246.272 426.709333-246.272V272L511.232 25.642667zM414.848 579.84c0 54.101333-11.434667 95.957333-34.346667 125.568a112.213333 112.213333 0 0 1-93.696 44.586667 112.213333 112.213333 0 0 1-45.397333-8.106667v-56.490667c13.226667 9.088 29.013333 13.653333 45.056 13.013334 46.933333 0 70.485333-39.466667 70.570667-118.442667V294.357333h57.813333v285.44z m323.626667 138.453333c-28.586667 21.12-68.224 31.701333-118.954667 31.701334a311.808 311.808 0 0 1-61.397333-7.509334 149.290667 149.290667 0 0 1-51.541334-18.304v-66.048c16.213333 13.312 34.816 23.296 54.869334 29.482667a205.013333 205.013333 0 0 0 65.408 11.52c62.890667 0 94.293333-22.314667 94.293333-66.986667a59.52 59.52 0 0 0-10.410667-33.92 95.872 95.872 0 0 0-27.733333-26.496 725.76 725.76 0 0 0-66.218667-35.626666c-44.928-22.314667-74.496-43.093333-88.746666-62.336a106.453333 106.453333 0 0 1-21.461334-65.706667 103.978667 103.978667 0 0 1 44.544-88.490667 186.709333 186.709333 0 0 1 113.066667-32.64c44.544 0 77.226667 5.376 98.218667 16.213334v62.933333a176.042667 176.042667 0 0 0-102.4-27.989333 117.973333 117.973333 0 0 0-66.901334 17.194666c-16.64 10.154667-26.496 28.416-25.898666 47.872-0.554667 16.64 5.973333 32.682667 17.92 44.202667a354.56 354.56 0 0 0 77.696 46.506667c43.946667 20.992 74.752 42.026667 92.330666 63.146666 17.066667 19.626667 26.368 44.8 26.282667 70.826667a105.557333 105.557333 0 0 1-42.965333 90.453333z" fill="#2B94FE" p-id="8875"></path></svg>